<svg width="52" height="52" viewBox="0 0 52 52" fill="none" xmlns="http://www.w3.org/2000/svg">
<path d="M27.1173 48.1407L27.0361 48.1275C27.0474 48.1363 27.0608 48.1421 27.075 48.1444C27.0892 48.1467 27.1038 48.1454 27.1173 48.1407ZM45.5915 19.0715C45.5684 18.9489 45.5049 18.8376 45.4113 18.7553C45.3176 18.6729 45.1992 18.6242 45.0747 18.6168C44.9502 18.6095 44.8268 18.6439 44.7241 18.7147C44.6214 18.7855 44.5453 18.8885 44.5079 19.0075C44.472 19.1204 44.4013 19.2191 44.3059 19.2894C44.2104 19.3596 44.0952 19.3978 43.9767 19.3985H42.4055C42.3039 19.3986 42.2041 19.3709 42.1171 19.3183L39.8441 17.9553C39.7571 17.9027 39.6574 17.875 39.5557 17.8751H35.9197C35.8091 17.8749 35.7009 17.9078 35.609 17.9695L31.125 20.9585C31.0475 21.0101 30.984 21.0802 30.9404 21.1625C30.8968 21.2448 30.8744 21.3366 30.8751 21.4297V25.669C30.875 25.7706 30.9026 25.8703 30.9548 25.9574C31.007 26.0446 31.082 26.1158 31.1717 26.1636L37.0511 29.3019C37.1395 29.3494 37.2135 29.4196 37.2657 29.5053C37.3178 29.591 37.3461 29.6891 37.3477 29.7894L37.3751 32.1751C37.3767 32.2738 37.4043 32.3704 37.4551 32.4551C37.5059 32.5398 37.5782 32.6096 37.6646 32.6575L40.0269 33.9646C40.1145 34.0132 40.1874 34.0843 40.2383 34.1705C40.2892 34.2568 40.3161 34.355 40.3164 34.4551V39.3911C40.3164 39.4989 40.3475 39.6045 40.4061 39.6951C40.4646 39.7857 40.548 39.8576 40.6463 39.9019C40.7446 39.9463 40.8537 39.9614 40.9603 39.9454C41.067 39.9293 41.1668 39.8829 41.2477 39.8115C42.2004 38.9726 43.5664 37.7478 43.7482 37.4675C44.0488 37.0023 44.3308 36.526 44.5942 36.0385C45.1396 35.0284 45.6016 33.9754 45.9754 32.8901C47.2633 29.1617 46.2456 22.4596 45.5915 19.0715ZM29.0876 30.7532L22.8588 26.0813C22.7885 26.0286 22.703 26.0001 22.6151 26.0001H19.6596C19.609 26.0001 19.559 25.9902 19.5123 25.9708C19.4655 25.9515 19.4231 25.9231 19.3874 25.8873L17.994 24.4939C17.9562 24.4562 17.9114 24.4263 17.8621 24.4059C17.8128 24.3855 17.7599 24.375 17.7065 24.3751H12.3044C12.2283 24.3751 12.1539 24.3525 12.0906 24.3102C12.0273 24.2679 11.9779 24.2078 11.9488 24.1374C11.9197 24.0671 11.912 23.9897 11.9269 23.915C11.9417 23.8404 11.9784 23.7718 12.0322 23.718L12.8874 22.8628C12.9231 22.827 12.9655 22.7986 13.0122 22.7793C13.059 22.7599 13.109 22.75 13.1596 22.7501H16.4472C16.6242 22.7501 16.7964 22.6922 16.9376 22.5853C17.0788 22.4785 17.1812 22.3284 17.2292 22.158L17.929 19.6697C17.9439 19.6162 17.9696 19.5663 18.0045 19.5232C18.0395 19.4801 18.0829 19.4445 18.1321 19.4188L20.922 17.9827C20.9848 17.9503 21.0374 17.9012 21.0741 17.8408C21.1109 17.7804 21.1303 17.7111 21.1302 17.6405V16.3709C21.1303 16.2922 21.1544 16.2153 21.1993 16.1505L22.6821 14.0157C22.7266 13.9515 22.7897 13.9026 22.8629 13.8755L24.9378 13.0965C25.0112 13.069 25.0744 13.0198 25.1191 12.9553C25.1637 12.8909 25.1877 12.8144 25.1876 12.736V11.5782C25.1876 11.5147 25.172 11.4522 25.142 11.3962C25.1121 11.3402 25.0688 11.2925 25.016 11.2572L22.936 9.87397C22.8788 9.83637 22.8128 9.81451 22.7445 9.81058C22.6762 9.80666 22.6081 9.82082 22.547 9.85162L19.7154 11.2674C19.6507 11.2994 19.5782 11.3125 19.5063 11.3051C19.4345 11.2977 19.3661 11.2702 19.3092 11.2258L17.9665 10.1644C17.9207 10.1276 17.8839 10.0808 17.859 10.0275C17.834 9.97429 17.8216 9.91605 17.8225 9.85727C17.8235 9.79848 17.8379 9.74069 17.8646 9.68832C17.8913 9.63594 17.9297 9.59036 17.9767 9.55506L19.0675 8.7517C19.1169 8.71548 19.1569 8.66798 19.1841 8.61315C19.2114 8.55832 19.2252 8.49777 19.2243 8.43653C19.2234 8.3753 19.2079 8.31517 19.179 8.26116C19.1501 8.20716 19.1088 8.16084 19.0583 8.12608L17.3592 6.94084C17.3004 6.89943 17.2311 6.87538 17.1593 6.87143C17.0874 6.86748 17.016 6.88379 16.9529 6.9185C16.3385 7.25467 14.5358 8.24998 13.8959 8.69787C10.9355 10.7739 8.55298 13.5703 6.97342 16.8229C6.78857 17.2048 6.56006 17.5937 6.53771 18.0132C6.51537 18.4326 6.18631 19.369 6.0492 19.7479C6.0307 19.7991 6.02331 19.8536 6.02751 19.9079C6.03172 19.9622 6.04742 20.015 6.07357 20.0627L9.69834 26.7232C9.73096 26.7837 9.7794 26.8343 9.83849 26.8694L13.6522 29.1587C13.7016 29.1881 13.7439 29.2283 13.7757 29.2763C13.8075 29.3243 13.8281 29.3789 13.836 29.4359L14.5997 34.9751C14.6072 35.0282 14.6256 35.0792 14.6537 35.1248C14.6819 35.1704 14.7192 35.2097 14.7633 35.2402L17.739 37.2857C17.8252 37.3449 17.8853 37.4352 17.9066 37.5376L19.4849 45.0329C19.4937 45.0769 19.5106 45.1189 19.5347 45.1568C19.6829 45.3965 20.274 46.274 20.987 46.404C20.921 46.4222 20.8621 46.4639 20.7961 46.4832C20.9673 46.5133 21.1369 46.5526 21.3039 46.601C21.507 46.6558 21.7101 46.7026 21.9133 46.7462C22.2311 46.8092 22.2626 46.858 22.415 46.5756C22.6181 46.1978 22.8507 46.0678 23.0244 46.0211C23.096 46.0046 23.1616 45.9682 23.2135 45.9161C23.2654 45.864 23.3016 45.7983 23.3179 45.7265L24.3406 40.9856C24.3621 40.8862 24.4201 40.7985 24.5031 40.7398L29.0734 37.5C29.1265 37.4624 29.1698 37.4126 29.1997 37.3548C29.2296 37.2971 29.2451 37.2329 29.2451 37.1679V31.0782C29.2457 31.0155 29.2318 30.9536 29.2044 30.8972C29.1771 30.8409 29.1372 30.7916 29.0876 30.7532Z" fill="#ED2438"/>
<path d="M26.6095 4.875C26.6095 4.875 26.2388 4.89633 26.1637 4.89836C25.6132 4.91461 25.0641 4.95253 24.5163 5.01211C22.5195 5.22873 20.5639 5.72976 18.709 6.5C18.9558 6.67062 18.5312 6.82703 18.5312 6.82703L19.1955 8.125H22.7502L25.1877 9.34375L27.3205 8.125L26.6095 4.875ZM35.9766 12.1936L37.6128 10.7717C37.664 10.7273 37.7033 10.6707 37.727 10.6072C37.7508 10.5437 37.7583 10.4752 37.7488 10.4081C37.7393 10.3409 37.7131 10.2772 37.6727 10.2228C37.6323 10.1683 37.5789 10.1248 37.5173 10.0963L35.607 9.20969C35.5099 9.16442 35.3989 9.15929 35.2981 9.19543C35.1973 9.23157 35.1149 9.30604 35.0687 9.40266L34.2816 11.049C34.2387 11.139 34.2305 11.2416 34.2584 11.3373C34.2863 11.433 34.3484 11.5151 34.4329 11.568L35.4952 12.2322C35.569 12.2781 35.6556 12.2991 35.7423 12.2922C35.8289 12.2852 35.9111 12.2507 35.9766 12.1936ZM43.6355 14.2868L43.0434 13.3727C43.0342 13.3585 43.0261 13.3443 43.018 13.3291C42.9113 13.1107 42.0288 11.3283 41.2914 10.6366C40.7379 10.1136 40.5805 10.2639 40.5368 10.3797C40.5118 10.4437 40.4701 10.4999 40.4159 10.5422L37.4869 12.9096C37.4147 12.968 37.3248 12.9999 37.232 13H35.7156C35.6623 13 35.6094 13.0104 35.5601 13.0308C35.5108 13.0512 35.466 13.0811 35.4282 13.1188L34.2095 14.3376C34.1717 14.3753 34.1417 14.4201 34.1213 14.4694C34.1008 14.5187 34.0903 14.5716 34.0903 14.625C34.0903 14.6784 34.1008 14.7313 34.1213 14.7806C34.1417 14.8299 34.1717 14.8747 34.2095 14.9124L35.4282 16.1312C35.466 16.1689 35.5108 16.1988 35.5601 16.2192C35.6094 16.2396 35.6623 16.25 35.7156 16.25H43.3501C43.4049 16.25 43.4592 16.239 43.5096 16.2175C43.5601 16.196 43.6057 16.1645 43.6436 16.125C43.6816 16.0854 43.7111 16.0386 43.7305 15.9873C43.7499 15.936 43.7587 15.8813 43.7563 15.8265L43.7005 14.4909C43.6975 14.4183 43.675 14.3478 43.6355 14.2868Z" fill="#ED2438"/>
<path d="M26 7.3125C30.3235 7.31214 34.5133 8.8109 37.8556 11.5534C41.1979 14.2959 43.4859 18.1125 44.3297 22.3528C45.1735 26.5932 44.5209 30.9949 42.4831 34.808C40.4453 38.6211 37.1484 41.6097 33.1542 43.2645C29.1599 44.9193 24.7155 45.1379 20.5781 43.8832C16.4407 42.6284 12.8664 39.9779 10.4641 36.3832C8.06191 32.7885 6.98042 28.4721 7.40393 24.1695C7.82743 19.8668 9.72974 15.8441 12.7867 12.7867C14.5177 11.0458 16.5769 9.66559 18.845 8.72593C21.113 7.78627 23.545 7.30586 26 7.3125ZM26 3.25C13.4367 3.25 3.25 13.4367 3.25 26C3.25 38.5633 13.4367 48.75 26 48.75C38.5633 48.75 48.75 38.5633 48.75 26C48.75 13.4367 38.5633 3.25 26 3.25Z" fill="#ED2438"/>
</svg>
