<svg width="40" height="40" viewBox="0 0 40 40" fill="none" xmlns="http://www.w3.org/2000/svg">
<g clip-path="url(#clip0_131_19)">
<path d="M16.6668 33.3334H23.3335V31.6667H16.6668V33.3334ZM11.6668 38.3334C10.7502 38.3334 9.96572 38.0073 9.3135 37.3551C8.66016 36.7018 8.3335 35.9167 8.3335 35.0001V5.00008C8.3335 4.08341 8.66016 3.29841 9.3135 2.64508C9.96572 1.99286 10.7502 1.66675 11.6668 1.66675H28.3335C29.2502 1.66675 30.0352 1.99286 30.6885 2.64508C31.3407 3.29841 31.6668 4.08341 31.6668 5.00008V35.0001C31.6668 35.9167 31.3407 36.7018 30.6885 37.3551C30.0352 38.0073 29.2502 38.3334 28.3335 38.3334H11.6668ZM11.6668 26.6667H28.3335V10.0001H11.6668V26.6667Z" fill="#ED2438"/>
</g>
<defs>
<clipPath id="clip0_131_19">
<rect width="40" height="40" fill="white"/>
</clipPath>
</defs>
</svg>
